<?xml version="1.0" standalone="no"?>
<!DOCTYPE svg PUBLIC "-//W3C//DTD SVG 20010904//EN"
 "http://www.w3.org/TR/2001/REC-SVG-20010904/DTD/svg10.dtd">
<svg version="1.0" xmlns="http://www.w3.org/2000/svg"
 width="870.000000pt" height="870.000000pt" viewBox="0 0 870.000000 870.000000"
 preserveAspectRatio="xMidYMid meet">
<metadata>
Created by potrace 1.14, written by Peter Selinger 2001-2017
</metadata>
<g transform="translate(0.000000,870.000000) scale(0.100000,-0.100000)"
fill="#000000" stroke="none">
<path d="M4345 8630 c-3 -11 -11 -20 -16 -20 -5 0 -9 -4 -9 -8 0 -8 -36 -75
-79 -147 -10 -16 -30 -52 -44 -78 -15 -26 -34 -59 -43 -72 l-16 -25 -63 50
c-83 66 -144 100 -180 100 -24 0 -46 -16 -108 -75 -58 -55 -86 -75 -106 -75
-25 0 -100 34 -111 50 -13 19 -108 68 -125 65 -11 -2 -26 -4 -33 -4 -7 -1 -49
-35 -92 -76 -52 -49 -87 -75 -102 -75 -13 0 -47 16 -77 35 -29 19 -54 35 -56
35 -2 0 -54 32 -115 70 -61 39 -115 70 -119 70 -5 0 4 -44 19 -97 15 -54 26
-101 24 -104 -2 -4 -63 -7 -136 -8 -215 -2 -283 -16 -331 -69 -20 -22 -25 -60
-13 -112 8 -40 55 -160 68 -175 4 -5 8 -17 8 -28 0 -18 -12 -18 -287 -14 -245
4 -338 9 -338 17 0 3 -38 9 -75 12 -24 2 -34 -1 -32 -9 1 -7 -2 -13 -6 -13 -7
0 -33 -67 -33 -85 0 -2 -6 -22 -13 -42 -7 -21 -17 -60 -21 -88 -5 -27 -10 -57
-12 -65 -7 -32 -3 -207 6 -237 5 -18 8 -33 5 -33 -2 0 9 -27 26 -59 30 -61 62
-99 106 -128 25 -16 31 -57 9 -59 -36 -3 -156 -64 -238 -120 -43 -30 -82 -54
-85 -54 -14 -1 -57 -39 -50 -45 9 -9 106 -34 158 -40 25 -3 56 -8 70 -10 27
-5 87 -12 184 -20 33 -3 61 -6 62 -8 2 -2 -60 -25 -138 -52 -269 -92 -361
-155 -444 -302 -42 -73 -74 -140 -74 -153 0 -7 113 32 254 89 51 21 38 6 -45
-55 -45 -32 -88 -65 -95 -72 -7 -7 -34 -29 -61 -49 -86 -66 -184 -160 -248
-240 -86 -105 -93 -116 -147 -208 -86 -145 -182 -368 -202 -470 -3 -11 -12
-51 -21 -90 -33 -137 -36 -450 -6 -579 15 -63 51 -146 63 -146 5 0 54 45 109
101 96 97 115 108 85 51 -41 -80 -174 -473 -190 -562 -2 -14 -11 -56 -20 -93
-9 -37 -18 -82 -20 -100 -3 -18 -7 -48 -10 -67 -2 -19 -7 -57 -11 -85 l-6 -50
28 31 c33 36 34 37 188 224 115 140 155 186 155 176 0 -2 -13 -34 -30 -70 -16
-36 -46 -110 -66 -164 -33 -87 -40 -111 -48 -162 -4 -20 26 -120 59 -200 38
-91 153 -321 178 -354 4 -6 26 -40 48 -76 23 -36 45 -67 50 -68 5 -2 9 -9 9
-15 0 -7 13 -26 28 -44 15 -17 38 -46 52 -64 35 -47 177 -188 230 -230 25 -20
81 -55 125 -79 44 -24 102 -56 128 -72 26 -15 49 -28 51 -28 2 0 62 -33 133
-73 71 -40 136 -76 144 -80 8 -4 30 -17 49 -29 19 -11 56 -32 82 -45 26 -13
50 -28 53 -33 4 -6 11 -8 16 -5 5 4 9 3 9 -2 0 -4 15 -14 33 -22 17 -8 34 -17
37 -20 3 -3 21 -14 40 -25 161 -86 357 -209 390 -246 3 -3 39 -32 80 -65 92
-73 142 -118 287 -263 63 -63 116 -112 118 -110 2 2 5 23 6 46 l3 42 45 -27
c39 -23 81 -57 135 -109 7 -6 28 -31 47 -54 18 -23 39 -47 44 -54 15 -16 126
-166 152 -204 13 -18 28 -38 33 -45 6 -7 33 -43 61 -82 28 -38 59 -81 70 -95
10 -13 19 -30 19 -36 0 -7 4 -14 9 -16 9 -4 178 -253 236 -350 5 -9 30 -50 54
-89 24 -40 50 -84 57 -97 l12 -23 28 38 c15 21 39 54 54 73 14 19 61 85 103
145 206 291 478 672 489 685 7 8 32 40 55 71 23 32 52 70 65 85 79 92 215 194
230 171 4 -6 4 -15 -1 -20 -8 -8 -3 -57 5 -57 2 0 61 56 130 125 104 104 222
212 269 248 5 4 42 32 80 63 92 72 214 154 295 196 59 32 94 51 200 111 189
107 445 249 640 357 130 72 183 112 290 220 73 74 97 102 160 185 16 22 33 45
38 50 70 87 291 513 274 529 -3 3 1 6 8 6 7 0 10 3 7 6 -3 4 -2 15 3 24 6 10
16 43 24 74 13 50 13 61 -3 118 -18 59 -50 148 -71 193 -27 59 -61 148 -57
151 7 7 124 -124 175 -196 25 -36 50 -66 54 -68 4 -2 8 -8 8 -12 0 -5 18 -35
40 -67 22 -32 46 -66 52 -75 7 -10 16 -18 20 -18 8 0 3 125 -6 170 -3 14 -8
39 -11 55 -4 17 -10 50 -15 75 -18 98 -51 230 -79 322 -31 100 -126 342 -145
368 -18 25 33 -21 126 -112 l88 -88 21 41 c20 40 27 62 34 104 2 11 4 20 5 20
10 0 15 95 14 260 -1 204 -3 239 -24 335 -6 30 -13 65 -16 77 -21 106 -163
420 -226 498 -4 6 -36 48 -70 95 -70 97 -218 248 -328 335 -41 33 -77 63 -80
66 -3 4 -32 23 -65 44 -33 20 -52 34 -42 31 15 -5 123 -37 137 -41 3 -1 12 -4
20 -7 40 -16 85 -28 102 -28 16 0 13 10 -23 78 -57 105 -123 196 -162 223 -17
13 -34 26 -37 30 -7 10 -196 98 -217 102 -10 1 -22 5 -28 9 -5 3 -43 14 -82
24 -40 10 -73 21 -73 25 0 4 36 12 79 18 44 7 90 14 103 17 13 2 43 7 68 10
25 3 52 7 60 9 8 3 33 7 55 10 22 3 52 8 67 11 l28 6 -33 26 c-17 15 -43 37
-56 49 -13 12 -39 30 -58 40 -18 9 -33 21 -33 25 0 5 -5 8 -11 8 -6 0 -25 10
-42 22 -18 13 -33 22 -34 21 -2 -1 -23 6 -49 17 -25 11 -50 20 -54 20 -14 0
-24 22 -13 29 18 12 81 97 105 141 81 148 82 277 4 563 -14 49 -26 91 -29 93
-2 2 -28 -1 -58 -6 -30 -6 -76 -13 -104 -15 -27 -3 -70 -7 -95 -10 -67 -7
-480 -6 -491 1 -7 4 -6 10 0 18 6 7 27 54 46 106 66 170 46 223 -95 257 -46
11 -98 14 -215 15 -71 0 -133 2 -137 5 -5 2 -1 17 7 33 9 17 15 31 14 32 0 2
5 17 11 33 7 17 18 49 25 72 11 35 10 41 -1 36 -8 -3 -14 -8 -14 -13 0 -4 -18
-15 -40 -25 -22 -10 -40 -22 -40 -27 0 -4 -5 -8 -11 -8 -6 0 -31 -15 -57 -32
-26 -18 -58 -39 -72 -47 -41 -22 -159 -60 -162 -52 -2 4 -45 39 -96 79 -71 54
-98 70 -110 63 -10 -4 -33 -15 -52 -24 -19 -8 -65 -29 -103 -46 -37 -17 -74
-31 -83 -31 -12 0 -73 38 -94 60 -27 27 -101 80 -113 80 -12 0 -168 -71 -219
-100 -12 -7 -19 -6 -25 4 -4 8 -22 29 -38 48 -41 45 -105 136 -105 148 0 6 -4
10 -10 10 -5 0 -10 5 -10 10 0 17 -61 100 -74 100 -2 0 -8 -9 -11 -20z m63
-402 c11 -24 41 -79 65 -123 24 -44 49 -90 56 -103 l12 -23 42 33 c23 18 49
39 57 47 26 26 122 83 152 92 42 12 66 -1 142 -73 87 -84 105 -85 197 -19 137
101 154 101 253 2 38 -39 82 -77 98 -83 15 -7 29 -17 31 -23 2 -5 -23 -92 -55
-193 l-60 -183 -31 7 c-18 4 -53 7 -79 8 -27 1 -48 3 -48 6 0 16 -270 -4 -354
-26 -34 -9 -65 -17 -71 -18 -24 -5 -130 -40 -135 -45 -3 -3 -74 -41 -157 -83
l-153 -77 -137 71 c-76 39 -142 74 -148 77 -27 20 -202 72 -285 85 -144 24
-369 24 -430 2 -8 -3 -20 -2 -25 2 -9 6 -29 57 -41 105 -1 4 -3 9 -4 12 -1 3
-3 8 -4 13 -1 4 -12 41 -26 82 -13 41 -25 80 -26 85 -1 6 -7 25 -13 43 -9 31
-8 33 23 46 18 7 57 41 86 75 67 75 99 92 148 79 43 -12 124 -70 174 -125 l36
-41 77 83 c43 46 92 91 110 99 57 27 125 -5 218 -102 l56 -59 20 23 c12 13 21
28 21 33 0 5 3 11 8 13 4 2 25 28 47 58 22 30 42 57 45 60 4 3 21 26 39 53 17
26 35 47 39 47 5 0 18 -19 30 -42z m-1476 -191 c20 -8 44 -27 53 -41 18 -26
122 -322 128 -359 1 -12 5 -26 8 -32 8 -13 21 -85 16 -85 -3 0 -26 10 -53 21
-168 74 -337 246 -437 446 l-26 51 37 9 c59 15 231 8 274 -10z m3146 11 c23
-2 7 -49 -47 -139 -49 -83 -70 -110 -135 -179 -55 -59 -97 -92 -195 -157 -113
-75 -127 -78 -107 -25 8 20 35 105 61 187 25 83 51 166 57 185 24 76 69 118
143 133 17 4 183 0 223 -5z m-4144 -402 c71 -12 224 -96 298 -164 l27 -24 -28
-76 c-31 -84 -34 -86 -141 -98 -30 -3 -76 -10 -102 -15 -26 -4 -54 -6 -62 -3
-23 9 -62 117 -68 189 -1 14 11 135 16 160 3 11 5 26 5 33 1 9 8 11 22 7 12
-4 27 -8 33 -9z m4926 -65 c26 -140 4 -259 -52 -277 -13 -4 -78 -8 -145 -8
l-123 -1 -21 65 c-43 133 -46 114 34 168 75 50 157 92 180 92 8 0 17 3 21 8
12 11 80 30 87 23 4 -3 12 -35 19 -70z m-751 -13 c-74 -144 -214 -345 -280
-399 -101 -83 -173 -109 -349 -124 -30 -2 -89 -7 -130 -12 -41 -4 -97 -7 -125
-7 -56 0 -207 13 -212 17 -1 2 37 19 85 37 48 18 103 42 122 52 19 10 38 18
41 18 4 0 24 8 45 17 22 9 41 17 44 18 3 1 16 6 30 12 38 16 74 30 82 32 14 2
143 73 159 87 8 8 18 14 21 14 5 0 192 108 278 160 8 5 54 32 102 60 48 28 90
56 94 61 3 6 8 8 11 6 2 -3 -6 -25 -18 -49z m-3405 0 c39 -23 122 -77 184
-120 112 -77 192 -124 302 -178 133 -65 176 -82 374 -150 149 -51 166 -59 147
-70 -45 -23 -193 -31 -341 -16 -36 3 -99 8 -140 11 -41 3 -88 9 -105 12 -16 4
-34 7 -40 8 -38 4 -102 31 -153 65 -76 51 -135 117 -196 221 -27 46 -61 104
-75 129 -15 25 -35 64 -44 88 -16 39 -16 42 0 42 9 0 49 -19 87 -42z m1043
-162 c69 -7 160 -40 191 -68 29 -28 112 -151 112 -167 0 -8 -12 -6 -37 4 -21
9 -39 16 -40 16 -2 0 -8 1 -15 4 -7 2 -65 20 -128 40 -63 20 -122 38 -130 41
-8 3 -16 5 -17 5 -2 -1 -26 8 -55 19 -28 11 -54 17 -56 15 -3 -3 -10 -1 -16 4
-12 9 -99 39 -136 46 -12 2 -25 7 -28 9 -9 10 49 26 116 32 37 4 68 7 69 8 4
3 111 -2 170 -8z m1512 0 c35 -3 66 -7 68 -10 7 -6 -122 -67 -202 -96 -33 -12
-69 -26 -80 -30 -34 -14 -186 -61 -273 -85 l-84 -24 7 26 c8 35 57 105 96 137
56 47 115 72 199 83 25 3 46 6 47 7 4 3 149 -2 222 -8z m1076 -98 c-13 -69
-28 -118 -37 -118 -5 0 -6 5 -3 11 4 5 7 32 7 59 -1 36 4 52 16 60 9 5 18 10
19 10 1 0 0 -10 -2 -22z m-3910 -30 c2 -13 6 -42 9 -66 5 -47 -8 -49 -26 -4
-17 41 -18 52 -6 78 13 27 19 25 23 -8z m1975 -233 c5 -3 14 -14 19 -24 8 -15
-8 -36 -90 -122 -131 -135 -183 -205 -231 -309 -55 -119 -79 -162 -101 -182
-31 -27 -40 -22 -39 22 2 91 23 200 47 255 8 17 21 56 30 88 9 31 21 57 26 57
5 0 8 3 7 8 -4 10 40 81 71 116 57 62 176 119 223 105 15 -4 32 -10 38 -14z
m-1935 -88 c28 -3 93 -23 145 -46 52 -22 122 -47 155 -56 60 -15 195 -26 195
-15 0 16 391 12 408 -5 19 -19 -132 -87 -248 -111 -14 -3 -43 -9 -64 -14 -22
-5 -43 -7 -47 -4 -4 2 -10 1 -12 -3 -8 -13 -246 -1 -270 14 -4 2 -19 7 -34 9
-14 3 -80 25 -147 50 -67 25 -125 46 -131 47 -5 1 -14 5 -20 8 -17 10 -120 43
-121 38 0 -2 -7 1 -15 7 -14 11 -48 21 -99 30 -79 14 -21 39 115 50 44 3 81 7
82 8 3 2 20 1 108 -7z m4130 -8 l20 0 -20 -15 c-11 -8 -58 -26 -105 -41 -47
-14 -147 -52 -224 -84 -140 -60 -252 -94 -341 -104 -78 -9 -146 -11 -150 -5
-2 4 -21 5 -41 5 -21 -1 -70 7 -109 17 -38 10 -74 20 -80 21 -5 2 -52 18 -102
36 -85 31 -116 51 -78 51 23 0 22 0 62 13 41 14 124 15 243 2 117 -13 189 -11
301 10 14 3 69 23 122 45 53 22 116 43 139 46 24 4 45 8 48 11 3 3 70 2 150
-2 80 -3 154 -6 165 -6z m-1653 -93 c36 -2 71 -7 77 -10 9 -6 120 -149 243
-315 44 -59 165 -179 189 -186 10 -4 19 -10 19 -14 0 -4 19 -15 43 -26 23 -10
66 -28 95 -41 29 -13 56 -23 60 -24 4 0 22 -5 40 -11 l32 -11 -22 -28 c-46
-57 -88 -117 -88 -124 0 -4 8 -5 18 -2 9 3 33 8 52 11 19 3 50 10 69 15 19 5
38 7 42 4 4 -2 8 -28 8 -57 -1 -28 0 -56 1 -62 1 -5 2 -13 1 -17 0 -3 14 -28
32 -55 34 -51 123 -117 228 -169 32 -16 59 -32 59 -36 0 -5 6 -8 14 -8 7 0 19
-7 27 -16 11 -14 6 -22 -38 -62 -60 -56 -103 -112 -103 -135 0 -10 -4 -17 -9
-17 -5 0 -11 -13 -14 -28 -3 -16 -33 -57 -69 -93 -35 -36 -88 -92 -119 -125
-30 -32 -84 -86 -120 -119 -35 -33 -81 -79 -101 -103 -21 -23 -42 -42 -46 -42
-4 0 -28 41 -52 90 -39 80 -60 108 -60 81 0 -5 -5 -22 -12 -38 -54 -133 -53
-328 4 -488 30 -86 86 -179 155 -261 143 -166 158 -192 141 -251 -7 -21 -12
-40 -13 -43 -3 -11 -30 -65 -35 -70 -3 -3 -16 -29 -30 -57 -14 -29 -28 -53
-32 -53 -5 0 -8 -6 -8 -13 0 -15 -125 -183 -183 -245 -41 -43 -64 -66 -130
-125 -38 -33 -120 -74 -164 -82 l-33 -5 -1 80 c-1 44 -2 83 -3 88 -1 4 -6 34
-10 67 -4 33 -13 71 -20 84 -12 22 -14 21 -78 -60 -36 -46 -82 -110 -103 -141
-21 -32 -41 -58 -45 -58 -35 0 -350 180 -406 232 l-22 20 38 57 c22 34 61 73
96 98 33 23 101 82 152 132 l93 91 -21 22 c-28 30 -25 41 8 33 48 -10 118 -8
158 5 149 48 421 386 418 520 -1 68 -30 129 -84 178 -46 43 -181 102 -213 94
-4 -1 -16 2 -26 8 -10 5 -21 6 -25 3 -3 -3 -32 -7 -63 -8 -138 -4 -260 -42
-438 -135 -62 -33 -125 -62 -142 -64 -24 -5 -60 9 -169 64 -131 66 -261 116
-329 126 -43 6 -157 16 -176 16 -8 0 -43 -6 -77 -12 -168 -30 -270 -149 -256
-300 5 -57 41 -128 118 -235 47 -65 172 -195 188 -195 3 0 13 -6 20 -13 33
-32 103 -52 180 -52 77 0 92 -7 66 -33 -9 -9 -4 -20 22 -49 78 -86 212 -213
220 -208 9 6 71 -63 100 -112 l19 -32 -37 -29 c-104 -82 -297 -188 -422 -232
-163 -57 -268 -60 -356 -10 -64 36 -78 47 -154 121 -55 55 -183 211 -206 254
-7 11 -37 65 -68 120 -62 110 -88 181 -79 217 8 32 31 63 102 138 34 36 69 77
79 93 9 15 20 27 24 27 4 0 8 6 8 14 0 8 3 16 8 18 13 5 69 120 91 186 28 83
38 189 27 287 -11 95 -30 211 -37 219 -4 4 -15 -7 -25 -25 -9 -19 -21 -37 -26
-40 -5 -3 -9 -9 -9 -13 1 -3 -6 -17 -14 -31 -8 -14 -22 -36 -30 -50 l-16 -25
-46 52 c-25 29 -73 78 -107 108 -33 30 -85 82 -116 114 -30 33 -83 88 -117
123 -35 35 -63 68 -63 74 0 32 -63 132 -118 186 -35 35 -60 67 -57 73 3 5 52
35 109 66 204 111 258 174 257 298 0 71 -7 66 69 51 14 -2 37 -7 53 -9 15 -3
36 -8 47 -11 11 -4 20 -3 20 1 0 4 -25 40 -55 80 l-54 73 67 22 c105 34 182
73 241 119 65 52 70 57 151 151 86 100 96 113 111 141 6 13 15 25 19 28 4 3
19 25 33 50 55 95 104 130 182 130 47 0 79 -21 71 -49 -54 -202 -87 -519 -59
-564 4 -7 8 -17 9 -22 1 -6 16 -47 34 -90 18 -44 40 -102 49 -128 l17 -48 23
72 c21 66 30 79 103 148 101 96 131 138 203 281 64 126 113 196 162 230 17 12
58 46 90 76 76 70 112 82 268 90 49 3 91 7 93 9 2 2 9 2 15 0 7 -3 42 -6 79
-9z m-2507 -255 c22 -5 52 -12 67 -16 16 -3 31 -6 35 -7 242 -64 312 -71 488
-54 122 12 165 15 165 10 0 -11 -46 -45 -95 -71 -82 -42 -156 -65 -229 -68
-57 -3 -78 1 -125 22 -101 46 -200 83 -233 87 -18 3 -33 6 -33 7 0 1 -9 3 -20
5 -11 1 -30 5 -42 8 -40 9 -177 18 -283 18 l-105 0 86 28 c47 15 117 31 155
35 38 4 70 8 72 9 4 5 53 -2 97 -13z m3979 4 c27 -3 90 -12 140 -20 51 -8 104
-16 119 -17 34 -3 25 -11 -16 -14 -17 -2 -59 -5 -92 -8 -33 -2 -60 -5 -60 -6
0 0 -26 -3 -58 -5 -32 -2 -77 -7 -100 -11 -23 -3 -53 -8 -67 -9 -66 -8 -171
-40 -262 -80 -133 -60 -201 -59 -343 4 -52 23 -145 82 -145 92 0 3 15 5 33 3
54 -5 139 -15 195 -23 29 -4 65 -7 80 -5 46 6 86 12 112 18 51 12 68 16 185
41 65 14 142 31 170 38 27 7 53 12 56 11 3 -2 27 -5 53 -9z m-4096 -260 c113
-13 192 -37 229 -72 16 -14 19 -13 -147 -48 -69 -15 -186 -40 -260 -56 -74
-16 -200 -43 -279 -60 -80 -16 -153 -35 -163 -40 -10 -5 -18 -8 -18 -5 0 2
-34 -6 -75 -19 -41 -12 -75 -21 -75 -18 0 3 -6 0 -13 -6 -8 -6 -16 -8 -20 -5
-3 3 -16 0 -29 -7 l-23 -12 20 24 c22 26 21 26 60 54 14 11 36 28 48 38 37 31
196 127 261 157 175 81 286 98 484 75z m4365 -4 c15 -6 27 -8 27 -6 0 3 37 -9
81 -25 97 -35 231 -106 308 -163 63 -46 151 -126 151 -138 0 -6 -31 -1 -90 16
-28 7 -294 83 -370 105 -41 12 -82 23 -90 26 -8 2 -67 17 -130 33 -63 17 -131
33 -150 36 -19 3 -42 8 -50 10 -13 4 -52 9 -150 20 -14 2 -33 3 -44 4 -17 1
-16 3 5 19 46 35 126 58 239 68 41 3 76 8 78 9 8 7 160 -5 185 -14z m-3985
-290 c45 -3 -31 -93 -115 -135 -32 -16 -94 -54 -138 -85 -209 -144 -195 -136
-255 -134 -30 1 -74 4 -97 5 -24 2 -43 0 -43 -4 0 -4 -7 -5 -15 -2 -8 3 -36 1
-62 -5 -27 -6 -60 -13 -76 -15 -15 -3 -36 -8 -48 -11 -18 -6 -19 -5 -7 14 7
12 15 21 19 21 3 0 14 8 25 18 53 48 234 144 419 222 55 23 125 53 155 67 102
47 130 52 238 44z m3489 -12 c9 -8 19 -13 22 -12 3 0 22 -5 41 -14 19 -8 68
-28 109 -45 142 -60 551 -275 551 -290 0 -8 -126 -2 -140 7 -11 7 -103 18
-135 17 -11 0 -45 -2 -75 -4 -30 -2 -66 -1 -80 3 -14 3 -74 41 -134 83 -59 42
-140 94 -179 114 -114 59 -189 143 -139 155 35 9 143 -1 159 -14z m-4443 -171
c-5 -7 -20 -22 -34 -34 -14 -12 -45 -40 -70 -64 -24 -23 -58 -54 -75 -69 -30
-27 -75 -85 -75 -96 0 -7 -110 -158 -120 -165 -56 -39 -310 -284 -449 -434
-56 -60 -68 -65 -52 -24 5 14 12 38 14 54 5 25 17 84 31 149 34 162 105 326
169 396 32 34 146 119 161 119 3 0 23 11 44 24 20 12 40 24 45 24 4 1 24 9 45
18 31 14 237 86 237 84 0 -1 7 1 15 4 14 5 94 22 113 25 5 1 5 -5 1 -11z
m5341 -9 c22 -6 45 -12 50 -14 11 -2 29 -9 90 -32 103 -39 127 -49 225 -96
161 -77 237 -165 304 -352 29 -82 53 -166 61 -214 3 -19 8 -38 10 -42 9 -14
14 -139 5 -139 -4 0 -10 4 -12 9 -3 8 -166 186 -243 265 -17 17 -64 60 -105
96 -41 36 -95 86 -120 111 -39 39 -60 68 -132 184 -24 37 -145 152 -197 185
-28 18 -51 36 -51 40 0 11 72 10 115 -1z m-4639 -385 c55 -36 68 -70 70 -177
2 -111 -14 -185 -54 -262 -41 -77 -141 -225 -152 -225 -5 0 -7 6 -5 13 6 15
14 60 21 112 3 22 8 47 10 55 3 8 8 38 10 65 3 28 7 61 9 75 3 14 8 52 11 85
3 33 7 71 10 85 4 23 12 94 19 160 2 14 3 26 4 28 3 7 25 0 47 -14z m-551 -14
c-10 -11 -24 -20 -32 -20 -7 0 -13 -3 -13 -8 0 -4 -48 -36 -107 -72 -60 -36
-110 -67 -113 -71 -4 -4 -85 -50 -297 -165 -24 -13 -43 -20 -43 -16 0 13 99
110 159 156 111 84 248 155 366 190 33 10 65 19 70 21 24 8 27 4 10 -15z
m4444 -12 c15 -24 19 -53 26 -203 5 -135 7 -148 36 -260 20 -75 24 -96 32
-153 2 -13 10 -28 18 -33 8 -5 9 -9 4 -9 -11 0 -43 33 -96 100 -64 80 -131
218 -146 300 -16 89 -5 240 18 240 5 0 9 6 9 13 0 18 38 35 65 29 12 -2 27
-13 34 -24z m526 20 c6 -3 25 -9 44 -13 19 -4 50 -14 70 -22 20 -9 37 -15 39
-14 6 4 163 -85 222 -127 68 -48 193 -169 182 -176 -4 -2 -52 23 -107 55 -55
32 -109 63 -120 68 -11 5 -96 52 -188 105 -93 53 -173 96 -177 96 -13 0 -22
19 -15 30 6 10 32 9 50 -2z m-4857 -215 c-18 -26 -40 -56 -50 -68 -9 -11 -39
-49 -68 -85 -193 -244 -512 -546 -727 -689 -67 -45 -90 -51 -78 -23 4 9 14 35
22 57 49 136 189 378 264 456 49 51 85 76 264 183 88 53 167 101 175 106 21
14 149 80 155 81 2 0 19 6 37 14 18 8 34 14 36 15 2 0 -12 -21 -30 -47z m4847
-28 c28 -15 62 -37 78 -47 15 -11 27 -16 27 -12 0 4 10 -1 23 -12 12 -11 38
-28 57 -38 19 -11 54 -32 78 -48 24 -15 45 -28 48 -28 9 0 138 -91 167 -119
42 -38 147 -201 205 -316 63 -125 105 -235 90 -235 -11 0 -140 85 -181 120
-49 40 -66 55 -122 103 -108 94 -373 366 -482 493 -72 85 -109 145 -117 187
l-5 28 42 -24 c23 -14 65 -37 92 -52z m-255 -116 c85 -122 190 -238 457 -506
l232 -232 69 -143 c57 -116 122 -278 122 -303 0 -12 -203 125 -260 175 -16 14
-43 36 -60 50 -36 29 -197 191 -234 235 -47 57 -91 112 -106 135 -8 12 -28 40
-44 62 -47 67 -146 266 -173 347 -24 73 -39 201 -25 201 4 0 14 -10 22 -21z
m-4444 -31 c-12 -72 -45 -191 -57 -202 -5 -6 -9 -16 -9 -24 0 -47 -203 -382
-264 -437 -6 -5 -22 -23 -34 -40 -28 -37 -120 -132 -193 -201 -92 -86 -216
-176 -322 -234 l-38 -21 7 28 c4 15 7 33 7 40 0 7 3 13 7 13 4 0 7 6 7 13 0 6
15 44 33 82 121 263 157 313 340 475 113 99 191 180 340 350 52 60 174 190
177 190 2 0 2 -15 -1 -32z m3829 -106 c55 -30 163 -121 202 -169 21 -26 40
-50 43 -53 3 -3 30 -34 60 -70 75 -90 317 -328 341 -335 10 -4 19 -10 19 -14
0 -5 18 -21 40 -36 22 -15 38 -31 35 -35 -8 -13 -119 2 -155 21 -8 4 -41 17
-72 28 -32 11 -66 25 -75 30 -10 5 -47 21 -83 36 -117 50 -313 153 -405 214
-175 116 -209 165 -183 260 12 47 100 147 118 136 5 -3 11 -1 14 4 8 12 64 3
101 -17z m-3088 -19 c83 -79 110 -166 69 -222 -49 -66 -223 -184 -411 -280
-27 -13 -52 -25 -55 -26 -3 -1 -40 -18 -84 -38 -43 -20 -81 -37 -83 -37 -3 0
-19 -6 -36 -14 -18 -8 -75 -29 -127 -46 -52 -17 -108 -35 -124 -40 -16 -5 -31
-8 -33 -6 -2 2 19 26 48 52 28 27 75 72 104 99 29 28 79 75 111 106 33 31 93
96 134 145 41 49 80 94 85 100 17 19 110 126 115 134 11 14 127 88 155 98 58
21 90 15 132 -25z m914 -217 c147 -9 285 -67 422 -175 48 -38 96 -72 107 -76
27 -9 73 15 160 85 61 48 184 123 209 126 4 0 26 6 51 14 58 17 68 19 173 26
161 11 227 -15 227 -89 0 -78 -179 -295 -260 -315 -25 -6 -74 -2 -111 8 -133
38 -217 -21 -234 -165 -10 -79 -26 -108 -79 -145 -46 -31 -56 -29 -62 14 -1
12 -5 44 -9 71 -3 28 -8 66 -11 85 -2 19 -6 44 -8 55 -3 11 -5 26 -5 33 -1 8
-10 12 -22 10 -16 -2 -23 -11 -25 -33 -2 -16 -6 -48 -9 -70 -3 -22 -8 -58 -10
-80 -3 -22 -7 -57 -11 -77 l-6 -38 -38 20 c-62 32 -83 65 -94 150 -10 76 -20
102 -57 138 -43 43 -88 51 -175 32 -106 -25 -147 -10 -237 83 -84 88 -130 168
-131 230 -1 46 2 51 29 66 17 9 52 18 80 19 27 2 51 5 53 7 3 3 8 2 12 0 4 -3
36 -7 71 -9z m1976 -264 c43 -33 92 -67 108 -76 17 -9 44 -25 60 -36 56 -36
220 -118 315 -158 85 -36 287 -111 314 -117 6 -1 18 -5 26 -8 8 -4 116 -32
240 -62 124 -31 246 -66 272 -80 60 -31 188 -125 188 -137 0 -11 -153 -9 -218
4 -26 5 -58 10 -72 13 -43 6 -206 37 -265 50 -61 13 -191 47 -233 61 -145 48
-332 134 -373 170 -8 8 -19 14 -23 14 -8 0 -61 38 -112 80 -17 14 -48 39 -68
55 -117 92 -199 172 -220 213 -17 35 -29 72 -22 72 3 0 40 -26 83 -58z m-2769
16 c-49 -69 -94 -117 -173 -183 -33 -27 -65 -54 -72 -60 -133 -117 -201 -165
-312 -217 -57 -28 -109 -51 -115 -53 -6 -1 -18 -5 -26 -8 -27 -11 -177 -58
-198 -62 -11 -2 -47 -10 -79 -19 -55 -14 -212 -48 -278 -60 -83 -15 -102 -18
-125 -21 -14 -1 -43 -5 -65 -9 -22 -3 -69 -8 -105 -11 l-65 -5 30 25 c17 13
35 29 42 35 7 5 15 10 18 10 3 0 34 22 69 49 58 45 118 74 178 85 13 2 55 13
93 24 63 18 111 31 140 37 6 2 30 8 55 15 25 7 52 13 60 15 8 2 49 13 90 25
41 12 80 22 85 24 6 1 33 13 60 26 28 12 128 58 222 101 95 42 229 112 298
153 69 42 129 76 133 76 4 0 18 9 32 20 34 27 35 25 8 -12z m-344 -641 c-3
-34 -7 -89 -10 -122 -13 -164 -16 -217 -17 -300 0 -81 3 -131 17 -275 2 -25 7
-81 11 -125 9 -113 17 -160 40 -247 3 -10 7 -26 9 -35 3 -10 12 -45 21 -78 35
-133 68 -256 96 -365 17 -63 37 -136 44 -162 11 -40 12 -48 1 -48 -8 0 -19 7
-26 15 -7 8 -16 12 -21 9 -5 -3 -9 0 -9 5 0 6 -4 11 -9 11 -4 0 -100 54 -212
120 -112 67 -265 150 -339 186 -321 157 -445 223 -462 248 -5 7 -8 7 -8 1 0
-7 -3 -7 -8 0 -4 6 -34 30 -67 54 -144 106 -329 331 -427 521 -18 36 -35 67
-38 70 -8 7 -83 177 -82 187 0 4 -4 16 -9 26 -5 9 -6 17 -2 18 4 0 15 2 23 3
22 5 110 16 156 21 22 2 54 6 70 9 36 6 96 14 154 21 25 4 56 8 70 10 14 2 47
7 74 10 27 3 59 7 70 10 12 2 46 7 77 10 31 3 67 8 80 10 13 3 33 7 44 9 36 7
150 37 165 43 8 3 18 6 21 5 4 -1 36 10 72 23 36 13 68 21 71 17 3 -3 6 0 6 6
0 7 6 12 13 12 7 0 62 21 122 46 61 25 129 53 152 61 24 8 46 19 49 24 14 23
22 -7 18 -64z m3426 56 c210 -97 297 -133 370 -154 25 -7 50 -14 55 -15 39
-12 257 -66 285 -70 19 -3 44 -7 55 -9 11 -2 37 -6 59 -10 21 -4 48 -9 60 -11
11 -3 35 -7 51 -8 17 -2 53 -7 80 -10 58 -8 93 -13 155 -20 25 -3 68 -8 95
-12 28 -3 66 -8 85 -10 19 -2 49 -6 65 -8 17 -3 33 -5 37 -5 8 -1 -10 -60 -25
-78 -5 -7 -7 -13 -4 -13 12 0 -161 -331 -182 -350 -4 -3 -24 -32 -46 -65 -22
-33 -48 -67 -57 -76 -10 -9 -18 -21 -18 -26 0 -16 -183 -186 -246 -228 -32
-22 -64 -44 -69 -50 -13 -13 -59 -41 -105 -63 -19 -9 -37 -19 -40 -22 -6 -6
-114 -59 -304 -150 -71 -34 -147 -73 -168 -86 -22 -14 -55 -34 -74 -45 -75
-42 -104 -59 -238 -138 -76 -44 -142 -81 -146 -81 -4 0 8 42 27 93 18 50 36
99 38 107 2 8 15 48 29 88 14 39 23 72 20 72 -3 0 -2 6 3 13 4 6 8 17 9 22 1
6 9 37 17 70 9 33 18 71 21 85 3 14 8 36 11 50 3 14 8 36 10 50 2 14 11 61 19
105 29 160 39 266 40 397 1 54 5 94 10 90 5 -3 6 0 2 7 -4 7 -9 92 -11 189 -2
97 -8 202 -12 232 -5 30 -8 75 -7 100 3 60 3 62 12 58 4 -2 18 -9 32 -15z
m-234 -134 c11 -162 13 -241 14 -394 0 -152 -2 -196 -16 -345 -10 -112 -18
-168 -39 -280 -19 -100 -20 -106 -39 -175 -9 -33 -19 -68 -21 -78 -8 -36 -68
-202 -76 -213 -5 -6 -7 -13 -4 -16 9 -9 -74 -96 -108 -114 -18 -9 -59 -30 -91
-46 -85 -43 -184 -109 -239 -158 -94 -85 -134 -168 -138 -284 -2 -63 -13 -98
-38 -128 -60 -71 -158 -194 -231 -288 -104 -136 -163 -203 -172 -195 -25 25
110 373 199 513 79 122 135 279 159 442 3 19 7 40 9 47 5 14 21 175 24 240 1
16 17 28 65 51 57 27 140 97 182 153 27 36 65 131 78 191 16 75 14 205 -3 289
-6 30 -13 63 -15 74 -12 60 -68 135 -101 135 -26 0 -17 17 32 57 26 21 57 45
68 55 11 9 54 44 95 78 97 79 121 106 269 304 68 92 126 165 128 162 2 -2 6
-37 9 -77z m-2888 -69 c44 -63 86 -122 94 -130 7 -9 26 -34 43 -55 55 -74 163
-167 278 -239 69 -45 92 -66 69 -66 -5 0 -25 -16 -44 -35 -35 -36 -66 -111
-74 -178 -2 -18 -6 -43 -10 -57 -20 -79 -2 -306 26 -334 6 -6 10 -16 10 -23 0
-18 47 -89 90 -136 19 -22 68 -61 108 -88 40 -27 79 -55 87 -62 13 -14 22 -62
31 -177 2 -30 6 -66 9 -80 2 -14 7 -41 10 -60 25 -147 75 -275 179 -460 73
-129 160 -331 172 -397 2 -13 6 -34 8 -47 2 -13 7 -33 11 -45 3 -12 5 -21 2
-21 -3 0 -63 74 -154 190 -108 138 -178 226 -183 230 -3 3 -32 37 -63 76 -60
75 -62 80 -71 211 -6 89 -55 162 -180 271 -14 12 -30 22 -35 22 -5 0 -11 3
-13 8 -5 11 -94 64 -172 103 -80 39 -146 98 -165 149 -17 45 -26 69 -39 102
-11 28 -78 274 -86 318 -2 14 -9 48 -15 75 -6 28 -12 64 -15 80 -3 17 -7 40
-10 52 -4 20 -9 59 -22 178 -2 22 -7 105 -10 185 -6 161 -6 162 -5 240 1 30 1
62 1 70 -2 59 17 201 31 238 12 31 7 35 107 -108z m1475 -258 c61 -34 67 -47
30 -57 -15 -5 -35 -10 -43 -12 -20 -6 -169 -4 -199 2 -36 7 -37 12 -6 41 77
72 127 77 218 26z m542 -64 c-10 -139 -16 -191 -21 -200 -10 -15 -61 -8 -84
12 -12 11 -22 30 -22 43 0 18 118 216 130 217 1 0 0 -33 -3 -72z m-685 -204
c19 -4 44 -7 55 -7 37 0 200 15 206 19 3 2 27 -10 53 -26 26 -17 51 -30 55
-30 5 0 16 -16 25 -35 17 -34 62 -75 101 -90 61 -23 191 -26 292 -6 l82 17 5
-26 c17 -86 22 -184 12 -266 -5 -49 -53 -126 -95 -156 l-39 -28 -25 39 c-34
51 -112 115 -132 107 -8 -3 -14 -9 -13 -13 5 -22 -17 -105 -43 -158 -61 -123
-145 -185 -306 -223 -49 -12 -306 -7 -373 7 -211 43 -330 175 -349 389 -1 9
-8 8 -28 -5 -35 -21 -113 -94 -113 -106 0 -5 -6 -15 -14 -22 -12 -12 -19 -10
-49 13 -55 43 -74 78 -94 172 -12 53 -1 218 17 265 4 11 16 21 26 22 11 1 30
4 44 7 14 3 34 7 45 9 11 2 38 8 60 12 80 14 90 16 155 30 36 7 121 34 190 59
128 45 153 49 250 30z m546 -1022 c-18 -198 -57 -327 -147 -487 -78 -140 -123
-239 -179 -395 -29 -80 -54 -152 -55 -160 -2 -8 -4 -15 -5 -15 -1 0 -3 -7 -6
-15 -3 -13 -37 -107 -57 -160 -3 -8 -11 -33 -18 -55 -6 -22 -15 -45 -20 -51
-5 -6 -6 -14 -2 -17 3 -4 2 -7 -3 -7 -9 0 -40 88 -36 103 1 4 -3 7 -10 7 -6 0
-9 2 -6 5 6 6 -44 160 -55 172 -4 3 -7 13 -7 20 0 26 -122 368 -138 386 -8 9
-12 17 -7 17 4 0 3 6 -2 13 -27 34 -171 315 -177 344 -1 10 -6 25 -9 33 -13
34 -28 131 -32 217 -5 100 -8 97 50 73 222 -91 339 -113 521 -98 28 3 55 7 60
10 5 3 25 8 45 12 38 7 183 61 232 87 15 8 37 15 48 16 19 2 20 -2 15 -55z
m469 -450 c1 -9 5 -35 9 -57 6 -37 5 -38 -8 -20 -15 21 -19 43 -17 84 1 26 14
21 16 -7z m-1911 -19 c-7 -43 -22 -76 -25 -55 -1 6 -2 18 -3 25 -2 13 21 67
30 67 3 0 2 -17 -2 -37z"/>
<path d="M4300 7960 c-102 -34 -169 -139 -156 -244 7 -57 54 -126 110 -160 41
-26 58 -30 115 -30 140 1 233 101 226 245 -8 153 -144 240 -295 189z m105
-200 c2 -3 -11 -14 -30 -23 l-35 -17 0 28 c0 26 3 28 30 24 17 -2 32 -8 35
-12z"/>
<path d="M3414 6118 c-2 -4 -12 -6 -22 -6 -61 2 -197 -65 -306 -152 -40 -31
-196 -183 -196 -190 0 -8 24 -7 108 4 43 6 87 12 159 21 40 4 65 -7 43 -20 -6
-4 -8 -10 -5 -15 3 -5 8 -32 10 -61 5 -57 28 -101 75 -143 32 -28 103 -63 145
-70 14 -3 28 -7 32 -9 5 -3 35 -8 68 -11 103 -11 128 -18 185 -49 93 -51 147
-76 176 -82 6 -2 26 -6 43 -10 22 -5 31 -3 32 7 0 7 3 22 5 33 3 11 7 65 9
120 7 217 -89 431 -247 550 -38 28 -85 52 -127 65 -68 20 -179 31 -187 18z
m168 -219 c68 -35 129 -118 148 -205 8 -36 8 -37 -45 -35 -31 1 -65 1 -87 0
-36 -2 -126 15 -151 27 -32 17 -68 70 -60 90 3 8 1 14 -3 14 -5 0 -10 17 -12
38 -1 20 -3 46 -5 56 -5 43 140 53 215 15z"/>
<path d="M5268 6125 c-2 -1 -30 -5 -64 -7 -33 -3 -81 -15 -107 -26 -26 -12
-47 -19 -47 -16 0 9 -82 -58 -127 -103 -24 -23 -43 -47 -43 -53 0 -5 -4 -10
-8 -10 -9 0 -67 -114 -90 -175 -29 -76 -41 -163 -37 -260 2 -55 6 -109 9 -120
2 -11 5 -24 5 -29 1 -4 13 -5 29 -1 15 4 32 8 37 9 37 8 126 45 135 56 9 12
115 59 141 64 15 2 53 8 85 11 78 10 81 11 138 30 138 47 193 121 195 263 l1
43 38 -5 c20 -3 56 -8 80 -11 23 -3 61 -7 85 -10 23 -3 60 -8 81 -11 l40 -6
-75 77 c-90 93 -219 192 -305 234 -54 26 -187 64 -196 56z m55 -211 c15 -3 28
-10 28 -15 1 -5 2 -15 3 -21 1 -7 -1 -24 -5 -38 -4 -14 -10 -42 -14 -63 -8
-51 -53 -92 -118 -108 -60 -14 -132 -17 -165 -7 -13 5 -21 4 -18 0 3 -5 -9 -6
-25 -4 -23 3 -29 8 -24 21 4 9 9 27 12 41 6 32 58 118 86 142 69 59 135 73
240 52z"/>
</g>
</svg>
