<?xml version="1.0" standalone="no"?>
<!DOCTYPE svg PUBLIC "-//W3C//DTD SVG 20010904//EN"
 "http://www.w3.org/TR/2001/REC-SVG-20010904/DTD/svg10.dtd">
<svg version="1.0" xmlns="http://www.w3.org/2000/svg"
 width="419.000000pt" height="430.000000pt" viewBox="0 0 419.000000 430.000000"
 preserveAspectRatio="xMidYMid meet">

<g transform="translate(0.000000,430.000000) scale(0.100000,-0.100000)"
fill="#707075" stroke="none">
<path d="M2046 4185 c-31 -52 -59 -95 -62 -95 -3 0 -31 21 -62 46 l-56 46 -51
-58 -52 -58 -63 49 -64 49 -52 -58 -53 -58 -92 66 c-51 36 -94 65 -96 63 -2
-2 4 -23 12 -47 8 -23 15 -46 15 -51 0 -5 -38 -9 -85 -9 -55 0 -99 -6 -126
-17 -40 -16 -41 -17 -35 -55 4 -22 16 -58 27 -80 11 -22 19 -42 17 -43 -9 -9
-286 -5 -322 4 -22 5 -43 8 -47 6 -15 -10 -43 -136 -43 -200 0 -79 29 -154 70
-182 l24 -16 -50 -23 c-28 -13 -76 -41 -106 -63 l-56 -40 34 -5 c18 -3 73 -10
123 -16 49 -6 91 -13 93 -14 1 -2 -19 -9 -45 -16 -72 -19 -185 -74 -209 -101
-33 -37 -89 -143 -73 -137 110 46 142 58 145 55 2 -2 -22 -22 -54 -44 -181
-129 -299 -288 -362 -488 -37 -119 -38 -354 -1 -414 5 -7 26 7 60 40 29 28 55
48 58 46 2 -3 -4 -22 -15 -44 -33 -65 -80 -222 -102 -342 -12 -62 -19 -115
-17 -117 2 -2 36 42 75 99 112 163 133 170 72 24 -22 -52 -40 -102 -40 -111 0
-24 78 -194 128 -280 62 -104 175 -223 276 -290 44 -30 142 -83 216 -118 232
-111 415 -238 539 -376 57 -62 61 -65 61 -39 0 63 62 10 196 -168 85 -112 225
-319 264 -388 l32 -57 27 38 c16 20 72 102 125 181 192 283 304 419 349 421 4
0 7 -12 7 -27 0 -26 4 -23 61 39 124 138 307 265 539 376 310 147 451 288 579
580 23 51 41 100 41 108 0 9 -18 59 -40 111 -61 146 -42 140 71 -22 40 -57 75
-103 77 -101 2 2 -6 55 -18 117 -22 120 -69 277 -102 342 -11 22 -17 41 -15
44 3 2 29 -18 58 -46 34 -33 55 -47 60 -40 36 60 36 295 -1 412 -64 204 -179
360 -362 490 -85 60 -76 59 91 -11 17 -6 -41 101 -73 136 -27 31 -92 63 -183
93 -40 12 -71 24 -70 25 1 2 43 8 92 14 50 6 105 13 124 16 l33 5 -60 43 c-34
23 -79 51 -101 61 l-41 18 35 38 c43 48 59 105 52 194 -3 54 -28 157 -41 172
0 1 -24 -3 -51 -9 -45 -9 -315 -12 -323 -3 -2 1 6 21 17 43 11 22 23 58 27 80
6 38 5 39 -35 55 -27 11 -71 17 -126 17 l-84 0 19 56 20 56 -28 -17 c-15 -10
-58 -40 -96 -68 l-69 -50 -53 59 -52 59 -63 -50 -62 -49 -53 59 -53 59 -55
-48 c-31 -26 -60 -45 -65 -41 -6 3 -33 46 -62 95 -28 50 -53 90 -54 90 -1 0
-28 -43 -59 -95z m104 -167 c24 -40 44 -75 46 -77 2 -2 31 20 64 48 34 28 66
51 70 51 5 0 28 -22 51 -50 23 -27 46 -50 51 -50 6 0 36 21 69 47 l60 46 50
-56 c28 -32 55 -55 60 -51 15 9 11 -9 -21 -97 l-31 -84 -127 0 c-106 0 -138
-4 -192 -23 -57 -19 -132 -58 -180 -93 -13 -9 -29 -3 -78 29 -103 67 -167 84
-322 88 l-134 4 -22 58 c-29 79 -39 123 -24 120 6 -2 32 22 59 51 l48 55 65
-52 65 -51 47 54 c26 30 50 55 54 55 4 0 35 -22 69 -50 45 -36 64 -46 70 -37
6 7 27 40 47 75 21 34 39 62 41 62 1 0 22 -33 45 -72z m-787 -44 l46 -7 45
-133 c51 -152 54 -149 -61 -68 -43 31 -76 66 -112 120 -28 42 -49 80 -45 85 6
10 62 12 127 3z m1601 -3 c9 -14 -90 -156 -132 -189 -20 -16 -57 -41 -80 -56
-37 -23 -43 -25 -38 -9 69 217 83 248 112 254 46 10 132 10 138 0z m-2009
-228 c28 -13 60 -34 72 -45 20 -19 21 -23 8 -42 -8 -11 -15 -28 -15 -38 0 -15
-9 -18 -44 -18 -25 0 -56 -4 -70 -10 -23 -8 -28 -6 -41 20 -16 31 -19 86 -9
139 8 36 15 36 99 -6z m2399 -19 c6 -46 -7 -118 -23 -128 -5 -3 -37 -3 -72 0
-64 6 -65 7 -82 47 -9 22 -16 41 -14 41 1 1 14 11 28 24 28 24 138 74 150 67
3 -3 9 -25 13 -51z m-2034 -25 c86 -65 251 -148 375 -189 l100 -34 -50 -9
c-73 -13 -279 8 -332 34 -50 24 -105 84 -140 154 -14 28 -35 63 -46 79 l-20
28 24 -7 c13 -4 53 -30 89 -56z m1617 -25 c-58 -95 -110 -154 -160 -177 -64
-31 -383 -46 -350 -17 4 4 58 24 118 44 138 47 218 90 384 205 24 17 48 31 52
31 4 0 -16 -39 -44 -86z m-1087 -34 c26 -8 43 -23 68 -60 17 -27 30 -50 28
-50 -3 0 -78 25 -168 55 -89 30 -165 56 -168 56 -3 1 9 5 25 10 35 9 164 2
215 -11z m715 11 c27 -6 28 -7 10 -15 -53 -22 -309 -105 -313 -102 -2 3 10 25
27 50 23 34 41 48 69 55 73 19 153 24 207 12z m-1425 -89 l-1 -37 -15 28 c-9
16 -13 35 -10 43 10 26 26 4 26 -34z m1950 25 c0 -13 -7 -32 -15 -43 -13 -18
-14 -17 -15 17 0 20 3 39 7 42 13 14 23 7 23 -16z m-1835 -77 c3 -5 1 -10 -4
-10 -6 0 -11 5 -11 10 0 6 2 10 4 10 3 0 8 -4 11 -10z m1700 -9 c-3 -6 -11
-11 -17 -11 -6 0 -6 6 2 15 14 17 26 13 15 -4z m-841 -16 c-5 -12 -10 -13 -20
-4 -19 15 -18 19 6 19 13 0 18 -5 14 -15z m-891 -81 c73 -33 148 -44 217 -33
31 5 82 5 115 0 l60 -8 -40 -18 c-141 -63 -282 -58 -435 14 -35 17 -89 36
-119 42 -53 12 -54 13 -26 20 17 3 62 7 101 8 57 1 83 -4 127 -25z m1982 17
c28 -7 27 -8 -25 -19 -30 -7 -83 -26 -117 -42 -76 -37 -170 -60 -244 -60 -56
0 -160 27 -208 54 -23 13 -20 14 40 20 35 4 86 2 114 -3 63 -12 146 1 217 34
42 20 68 25 123 24 39 -1 84 -4 100 -8z m-1167 -70 l62 -23 63 23 c63 22 213
37 259 26 14 -4 34 -26 51 -56 68 -123 171 -219 263 -246 30 -8 54 -19 54 -22
0 -4 -15 -22 -32 -41 l-33 -34 38 6 c21 4 44 9 52 12 10 4 13 -6 13 -40 -1
-59 20 -83 117 -133 l72 -37 -37 -35 c-22 -21 -43 -54 -50 -77 -8 -27 -21 -46
-37 -53 -13 -6 -32 -25 -43 -43 -11 -18 -33 -42 -51 -53 -17 -11 -46 -39 -64
-63 l-34 -43 -30 52 -30 53 -8 -30 c-4 -16 -8 -74 -8 -129 0 -90 3 -106 29
-158 15 -32 56 -88 89 -124 l61 -64 -33 -67 c-59 -121 -151 -232 -236 -288
-46 -30 -151 -12 -264 46 -73 37 -149 92 -133 98 6 2 12 12 12 23 0 12 14 26
39 38 54 28 134 120 119 138 -8 10 -5 12 19 7 52 -10 107 12 155 64 55 59 116
150 118 177 6 55 -2 78 -37 116 -36 38 -41 40 -113 46 -108 8 -234 -30 -332
-100 -14 -9 -22 -9 -35 0 -99 70 -225 108 -333 100 -72 -6 -77 -8 -112 -46
-36 -38 -44 -61 -38 -116 2 -27 63 -118 118 -177 48 -52 103 -74 155 -64 24 5
27 3 19 -7 -15 -18 65 -110 119 -138 25 -12 39 -26 39 -38 0 -11 6 -21 12 -23
31 -11 -147 -115 -243 -142 -81 -23 -120 -23 -161 2 -76 47 -182 181 -237 300
l-24 51 60 65 c34 35 74 91 89 123 26 52 29 68 29 158 0 55 -4 113 -8 129 l-8
30 -30 -53 -30 -52 -34 43 c-18 24 -47 52 -64 63 -18 11 -40 35 -51 53 -11 18
-30 37 -43 43 -16 7 -29 26 -37 53 -7 23 -28 56 -50 77 l-37 35 72 37 c97 50
118 74 117 133 0 34 3 44 13 40 8 -3 31 -8 52 -12 l38 -6 -32 34 c-18 19 -33
37 -33 41 0 3 25 14 55 22 89 26 179 108 256 235 18 30 38 59 43 63 22 16 209
1 274 -22z m-844 -115 c111 -33 188 -40 260 -27 33 6 61 9 64 7 9 -10 -63 -45
-124 -60 -64 -16 -64 -16 -115 10 -69 34 -165 54 -273 54 -49 0 -87 3 -84 6 6
6 138 31 170 33 10 1 56 -10 102 -23z m2041 1 l50 -11 -110 -7 c-132 -8 -195
-22 -255 -55 -44 -25 -45 -25 -111 -9 -61 15 -137 51 -127 60 2 2 35 -1 72 -7
77 -13 175 -1 268 32 56 20 117 19 213 -3z m-2087 -128 c28 -6 52 -14 52 -17
0 -4 -60 -19 -132 -34 -73 -15 -191 -44 -263 -64 -71 -20 -139 -38 -150 -41
-11 -3 12 18 50 47 69 52 186 113 235 123 32 7 140 -1 208 -14z m2206 -23 c67
-31 202 -123 194 -131 -2 -2 -46 9 -98 26 -99 31 -394 99 -430 99 -40 0 -19
19 33 29 137 27 205 22 301 -23z m-2077 -129 c-2 -7 -40 -32 -85 -57 -44 -25
-94 -57 -110 -73 -26 -25 -36 -28 -123 -31 -52 -2 -103 -6 -114 -10 -55 -21
42 40 150 94 163 80 245 111 268 98 10 -5 16 -15 14 -21z m1768 -3 c101 -41
266 -123 310 -154 28 -21 28 -22 5 -15 -14 4 -67 9 -119 11 -89 3 -96 5 -125
33 -17 16 -66 48 -108 71 -89 48 -98 58 -73 77 11 7 19 13 20 13 1 0 41 -16
90 -36z m-2266 -85 c-70 -50 -109 -91 -134 -140 -15 -28 -49 -67 -92 -101 -60
-49 -172 -172 -181 -199 -2 -5 -7 -9 -11 -9 -22 0 21 162 70 266 40 85 103
124 304 190 93 30 95 29 44 -7z m2791 -30 c124 -47 164 -78 198 -151 39 -82
60 -145 71 -215 l9 -57 -32 39 c-52 67 -137 154 -188 193 -29 22 -57 54 -67
77 -17 38 -96 120 -151 157 -24 16 -22 16 30 2 30 -9 89 -29 130 -45z m-2407
-167 c27 -23 23 -124 -7 -187 -30 -64 -101 -161 -91 -125 28 101 35 145 35
218 0 117 13 136 63 94z m1940 -100 c3 -68 12 -131 25 -172 l21 -65 -29 35
c-53 62 -94 157 -98 225 -4 58 -2 63 23 83 43 34 52 17 58 -106z m-2233 109
c-8 -5 -87 -52 -175 -105 -148 -88 -156 -92 -110 -49 66 61 139 109 211 138
60 25 106 34 74 16z m2574 -32 c70 -35 139 -85 181 -130 l30 -33 -30 19 c-16
11 -93 57 -170 103 -100 60 -130 82 -105 77 19 -4 62 -20 94 -36z m4 -149 c98
-58 135 -87 164 -125 42 -55 134 -232 125 -241 -8 -8 -235 186 -296 251 -54
60 -162 191 -176 214 -5 9 3 8 24 -5 18 -10 89 -53 159 -94z m-2554 39 c-75
-98 -221 -245 -327 -331 -55 -43 -102 -77 -105 -73 -8 8 81 180 123 237 28 38
65 65 187 138 84 49 156 90 161 90 4 0 -13 -28 -39 -61z m2552 -289 c111 -109
120 -120 166 -219 27 -57 48 -107 46 -112 -4 -11 -127 81 -205 154 -113 106
-207 253 -238 374 -8 31 -15 61 -15 66 0 5 29 -26 64 -70 35 -43 117 -130 182
-193z m-2461 183 c-36 -123 -110 -237 -231 -354 -89 -85 -207 -175 -212 -161
-1 5 18 53 43 107 43 92 52 104 178 229 73 72 155 160 182 194 27 35 51 59 53
53 2 -6 -4 -36 -13 -68z m379 -3 c19 -17 40 -47 47 -67 11 -33 10 -37 -12 -55
-60 -48 -141 -99 -214 -135 -76 -39 -254 -107 -261 -100 -2 1 33 34 78 72 44
37 109 105 144 149 48 61 145 150 181 165 1 1 18 -13 37 -29z m1670 -107 c43
-57 156 -172 226 -228 l35 -28 -30 7 c-125 31 -354 146 -444 224 l-43 37 15
36 c8 19 29 47 46 62 l32 26 59 -38 c36 -23 78 -63 104 -98z m-1092 -35 c32
-15 80 -48 108 -74 l50 -47 50 47 c74 69 146 99 252 104 80 4 87 3 97 -17 14
-26 6 -44 -53 -118 -57 -71 -72 -78 -135 -62 -67 17 -96 4 -111 -49 -5 -22 -8
-47 -4 -55 5 -14 -41 -67 -57 -67 -8 0 -16 30 -25 98 -3 28 -10 52 -14 52 -4
0 -11 -24 -14 -52 -9 -68 -17 -98 -25 -98 -16 0 -62 53 -57 67 4 8 1 33 -4 55
-15 53 -44 66 -111 49 -63 -16 -78 -9 -135 62 -59 74 -67 92 -53 118 10 20 17
21 97 17 66 -3 101 -10 144 -30z m1033 -201 c113 -57 263 -109 391 -137 94
-20 126 -35 194 -91 l25 -20 -55 6 c-177 20 -363 67 -474 120 -93 45 -294 212
-296 247 0 4 28 -12 63 -36 34 -24 103 -64 152 -89z m-1571 78 c-20 -25 -39
-45 -43 -45 -3 0 -33 -25 -66 -55 -71 -65 -160 -114 -271 -148 -85 -27 -249
-61 -349 -72 l-60 -7 61 46 c46 34 76 49 118 57 214 39 493 154 606 248 42 34
43 23 4 -24z m-150 -322 c-4 -38 -7 -135 -7 -218 2 -184 27 -341 83 -508 22
-65 40 -121 40 -123 0 -2 -39 22 -87 52 -49 30 -157 88 -241 129 -84 42 -181
94 -215 117 -121 82 -210 191 -288 350 l-40 83 38 7 c21 4 99 14 175 23 75 9
187 29 250 45 109 28 253 81 272 100 22 22 27 7 20 -57z m1754 38 c115 -58
325 -111 517 -131 61 -7 125 -15 143 -18 l33 -7 -40 -83 c-78 -159 -167 -268
-288 -350 -34 -23 -131 -75 -215 -117 -84 -41 -193 -99 -242 -130 -57 -36 -86
-50 -81 -38 89 210 132 466 122 718 -4 77 -9 150 -13 163 -8 28 -5 28 64 -7z
m-149 -221 c1 -218 -25 -382 -89 -553 -21 -55 -24 -58 -103 -99 -141 -73 -211
-159 -192 -235 4 -19 -4 -35 -40 -76 -26 -28 -81 -96 -122 -152 -41 -55 -72
-89 -68 -75 25 84 71 196 102 247 62 102 80 165 98 335 5 49 9 57 31 62 14 4
45 26 69 50 73 73 92 180 57 316 -14 52 -21 65 -40 70 -20 4 -16 10 42 48 75
49 140 119 199 214 40 65 42 67 48 40 4 -15 7 -101 8 -192z m-1456 143 c63
-97 119 -157 193 -205 58 -38 62 -44 42 -48 -19 -5 -26 -18 -40 -70 -43 -167
1 -304 117 -360 44 -21 45 -23 45 -71 0 -59 24 -183 46 -236 9 -21 31 -63 50
-93 30 -49 80 -170 105 -254 11 -36 11 -36 -86 94 -42 58 -95 123 -117 146
-31 33 -38 46 -33 66 19 77 -50 163 -191 236 l-81 42 -31 92 c-45 136 -73 286
-79 428 -5 111 3 300 12 300 2 0 24 -30 48 -67z m739 -130 l41 -28 -41 -8
c-23 -4 -61 -4 -84 0 l-41 8 39 27 c21 15 40 27 42 27 1 1 21 -11 44 -26z
m-37 -134 c28 0 65 2 82 3 19 1 55 -10 85 -25 50 -26 167 -56 214 -57 26 0 34
-23 34 -106 0 -47 -5 -69 -22 -94 -25 -37 -48 -50 -48 -27 0 13 -68 73 -74 66
-2 -2 -9 -26 -16 -53 -18 -65 -71 -118 -140 -141 -81 -27 -221 -18 -282 18
-55 32 -81 66 -99 127 -7 25 -14 47 -15 49 -6 8 -74 -53 -74 -66 0 -23 -23
-10 -47 27 -18 25 -23 47 -23 94 0 83 8 106 34 106 44 1 162 31 211 54 69 34
77 36 105 29 14 -3 48 -5 75 -4z m240 -536 c-10 -82 -40 -170 -79 -234 -42
-69 -95 -202 -132 -332 -15 -53 -31 -94 -34 -90 -4 5 -24 66 -45 138 -25 83
-62 176 -103 255 -66 130 -92 207 -92 272 0 21 1 38 3 38 2 0 22 -9 44 -20
115 -55 283 -54 393 5 25 13 47 24 49 24 2 1 0 -25 -4 -56z m-724 -246 c-13
-13 -15 15 -3 53 7 24 7 23 10 -9 2 -18 -1 -38 -7 -44z m969 15 c0 -13 -4 -20
-10 -17 -5 3 -10 21 -10 38 0 24 3 28 10 17 5 -8 10 -25 10 -38z"/>
<path d="M2048 3925 c-100 -56 -57 -215 57 -215 98 0 151 128 82 198 -31 31
-100 39 -139 17z m75 -100 c1 -5 -6 -11 -15 -13 -11 -2 -18 3 -18 13 0 17 30
18 33 0z"/>
<path d="M1555 2986 c-40 -19 -126 -86 -190 -148 -10 -10 -1 -9 115 8 l40 6 0
-40 c0 -69 68 -120 173 -130 42 -3 75 -14 106 -33 25 -15 58 -31 73 -34 25 -6
27 -4 33 39 19 124 -40 257 -143 326 -59 39 -133 41 -207 6z m151 -85 c37 -23
84 -81 84 -104 0 -14 -11 -17 -62 -17 -90 0 -112 14 -119 74 -4 42 -3 49 15
56 32 13 48 11 82 -9z"/>
<path d="M2438 2980 c-103 -69 -162 -202 -143 -326 6 -43 8 -45 33 -39 15 3
48 19 73 34 31 19 64 30 106 33 105 10 173 61 173 130 l0 40 40 -6 c116 -17
125 -18 115 -8 -64 62 -150 129 -190 148 -74 35 -148 33 -207 -6z m134 -69
c22 -8 24 -13 19 -57 -7 -60 -29 -74 -118 -74 -52 0 -63 3 -63 17 0 23 47 81
84 104 35 21 45 23 78 10z"/>
</g>
</svg>
